<?xml version="1.0" encoding="UTF-8" standalone="no"?>
<!-- Created with Inkscape (http://www.inkscape.org/) -->

<svg
   width="210mm"
   height="297mm"
   viewBox="0 0 210 297"
   version="1.1"
   id="svg5"
   xml:space="preserve"
   inkscape:version="1.2.2 (732a01da63, 2022-12-09)"
   sodipodi:docname="explosion.svg"
   xmlns:inkscape="http://www.inkscape.org/namespaces/inkscape"
   xmlns:sodipodi="http://sodipodi.sourceforge.net/DTD/sodipodi-0.dtd"
   xmlns="http://www.w3.org/2000/svg"
   xmlns:svg="http://www.w3.org/2000/svg"><sodipodi:namedview
     id="namedview7"
     pagecolor="#ffffff"
     bordercolor="#666666"
     borderopacity="1.0"
     inkscape:showpageshadow="2"
     inkscape:pageopacity="0.0"
     inkscape:pagecheckerboard="0"
     inkscape:deskcolor="#d1d1d1"
     inkscape:document-units="mm"
     showgrid="false"
     inkscape:zoom="0.57848045"
     inkscape:cx="749.37709"
     inkscape:cy="791.72943"
     inkscape:window-width="1920"
     inkscape:window-height="1009"
     inkscape:window-x="-8"
     inkscape:window-y="-8"
     inkscape:window-maximized="1"
     inkscape:current-layer="layer2" /><defs
     id="defs2"><inkscape:path-effect
       effect="bspline"
       id="path-effect16518"
       is_visible="true"
       lpeversion="1"
       weight="33.333333"
       steps="2"
       helper_size="0"
       apply_no_weight="true"
       apply_with_weight="true"
       only_selected="false" /><inkscape:path-effect
       effect="spiro"
       id="path-effect16514"
       is_visible="true"
       lpeversion="1" /><inkscape:path-effect
       effect="bspline"
       id="path-effect16510"
       is_visible="true"
       lpeversion="1"
       weight="33.333333"
       steps="2"
       helper_size="0"
       apply_no_weight="true"
       apply_with_weight="true"
       only_selected="false" /><inkscape:path-effect
       effect="bspline"
       id="path-effect16329"
       is_visible="true"
       lpeversion="1"
       weight="33.333333"
       steps="2"
       helper_size="0"
       apply_no_weight="true"
       apply_with_weight="true"
       only_selected="false" /><inkscape:path-effect
       effect="bspline"
       id="path-effect16323"
       is_visible="true"
       lpeversion="1"
       weight="33.333333"
       steps="2"
       helper_size="0"
       apply_no_weight="true"
       apply_with_weight="true"
       only_selected="false" /><inkscape:path-effect
       effect="bspline"
       id="path-effect16316"
       is_visible="true"
       lpeversion="1"
       weight="33.333333"
       steps="2"
       helper_size="0"
       apply_no_weight="true"
       apply_with_weight="true"
       only_selected="false" /><inkscape:path-effect
       effect="bspline"
       id="path-effect16312"
       is_visible="true"
       lpeversion="1"
       weight="33.333333"
       steps="2"
       helper_size="0"
       apply_no_weight="true"
       apply_with_weight="true"
       only_selected="false" /></defs><g
     inkscape:label="Layer 1"
     inkscape:groupmode="layer"
     id="layer1"
     sodipodi:insensitive="true"><rect
       style="fill:#000000;stroke:#0b2228;stroke-width:1;stop-color:#000000"
       id="rect234"
       width="282.7579"
       height="290.74738"
       x="-29.873682"
       y="6.5999999" /></g><g
     inkscape:groupmode="layer"
     id="layer2"
     inkscape:label="Layer 2"><path
       id="path13175"
       style="fill:#f6d82b;fill-opacity:1;stroke:#ff6600;stroke-width:0.223943px;stroke-linecap:butt;stroke-linejoin:miter;stroke-opacity:1"
       d="m 119.74411,134.67757 -1.01751,4.79402 a 15.111143,13.494042 0 0 0 -9.76736,3.27009 l -0.0496,0.0165 -3.15846,-1.98695 -8.286835,-5.21312 10.089305,8.41085 a 15.111143,13.494042 0 0 0 -3.49126,6.06062 l -0.38034,0.60926 -6.346896,2.20193 6.217196,-0.99063 0.15554,0.87074 a 15.111143,13.494042 0 0 0 -0.0103,0.24185 15.111143,13.494042 0 0 0 0.30592,2.65617 l -9.518281,6.57841 9.926521,-5.14904 a 15.111143,13.494042 0 0 0 3.13056,4.89634 l -4.24883,6.08697 5.25652,-5.16196 a 15.111143,13.494042 0 0 0 10.25881,3.58738 15.111143,13.494042 0 0 0 4.25245,-0.55139 l 9.63663,9.28109 -8.23568,-9.71414 a 15.111143,13.494042 0 0 0 1.73581,-0.74517 l 5.46375,4.07468 -4.5191,-4.58938 a 15.111143,13.494042 0 0 0 6.29522,-7.90236 l 0.16692,-0.16743 8.16022,-1.87121 -7.79487,0.55036 -0.13177,-0.53847 a 15.111143,13.494042 0 0 0 0.0816,-1.32085 15.111143,13.494042 0 0 0 -2.06551,-6.80837 l 8.35609,-7.95404 -9.40718,6.35362 -0.32298,-0.16123 a 15.111143,13.494042 0 0 0 -9.63197,-4.79971 l -0.58601,-0.29197 z" /><ellipse
       style="fill:#feed5b;fill-opacity:1;stroke:none;stroke-width:0.449597;stroke-opacity:1;stop-color:#000000"
       id="path640"
       cx="118.80893"
       cy="152.46912"
       rx="11.660451"
       ry="10.249639" /><ellipse
       style="fill:#fff8ba;fill-opacity:1;stroke:none;stroke-width:2.61355;stroke-opacity:1;stop-color:#000000"
       id="path746"
       cx="118.80893"
       cy="152.3857"
       rx="8.8608904"
       ry="7.8134513" /><path
       id="path13175-7"
       style="fill:#f6d82b;fill-opacity:1;stroke:#ff6600;stroke-width:0.111275px;stroke-linecap:butt;stroke-linejoin:miter;stroke-opacity:1"
       d="m 78.520841,143.79078 -0.249835,2.63002 a 6.8870722,7.3101862 10.798314 0 0 -4.299168,2.27051 l -0.02184,0.0115 -1.525593,-0.90202 -4.002684,-2.3666 4.965082,3.99058 a 6.8870722,7.3101862 10.798314 0 0 -1.319179,3.44067 l -0.145978,0.34743 -2.790205,1.51678 2.785045,-0.85895 0.109499,0.45982 a 6.8870722,7.3101862 10.798314 0 0 0.0061,0.13052 6.8870722,7.3101862 10.798314 0 0 0.25732,1.41151 l -4.038714,4.03551 4.288043,-3.28873 a 6.8870722,7.3101862 10.798314 0 0 1.642266,2.46715 l -1.662738,3.49463 2.162414,-3.0504 a 6.8870722,7.3101862 10.798314 0 0 4.827726,1.38927 6.8870722,7.3101862 10.798314 0 0 1.910534,-0.51969 l 4.797786,4.48206 -4.179549,-4.78839 a 6.8870722,7.3101862 10.798314 0 0 0.756734,-0.49166 l 2.667434,1.903 -2.260466,-2.22924 a 6.8870722,7.3101862 10.798314 0 0 2.513205,-4.5778 l 0.06851,-0.0987 3.630051,-1.43427 -3.522535,0.70518 -0.08391,-0.28248 a 6.8870722,7.3101862 10.798314 0 0 -0.0216,-0.71418 6.8870722,7.3101862 10.798314 0 0 -1.24264,-3.55072 l 3.44869,-4.71381 -3.998151,3.90885 -0.154139,-0.0697 a 6.8870722,7.3101862 10.798314 0 0 -4.596397,-2.07377 l -0.279643,-0.12614 z" /><ellipse
       style="fill:#feed5b;fill-opacity:1;stroke:none;stroke-width:0.231586;stroke-opacity:1;stop-color:#000000"
       id="path640-0"
       cx="66.236374"
       cy="161.69099"
       rx="5.4757705"
       ry="5.7909994"
       transform="matrix(0.9931098,-0.1171876,0.08066148,0.99674155,0,0)" /><ellipse
       style="fill:#fff8ba;fill-opacity:1;stroke:none;stroke-width:1.11185;stroke-opacity:1;stop-color:#000000"
       id="path746-1"
       cx="65.519127"
       cy="161.36484"
       rx="3.5259097"
       ry="3.5537133"
       transform="matrix(0.99378797,-0.11129007,0.08496342,0.99638407,0,0)" /><path
       id="path13175-4"
       style="fill:#f6d82b;fill-opacity:1;stroke:#ff6600;stroke-width:0.223943px;stroke-linecap:butt;stroke-linejoin:miter;stroke-opacity:1"
       d="m 169.32765,134.85275 -1.01751,4.79402 c -3.58724,0.0202 -7.04945,1.17931 -9.76736,3.27008 l -0.0491,0.0165 -3.15898,-1.98696 -8.28683,-5.21312 10.0893,8.41086 c -1.72531,1.72016 -2.9274,3.80692 -3.49126,6.06061 l -0.38034,0.60927 -6.3469,2.20193 6.2172,-0.99064 0.15554,0.87075 c -0.004,0.0806 -0.007,0.16121 -0.01,0.24185 0.003,0.89224 0.10587,1.78198 0.30593,2.65616 l -9.51828,6.57841 9.92652,-5.14904 c 0.64578,1.81076 1.71259,3.47929 3.13056,4.89635 l -4.24884,6.08696 5.25653,-5.16196 c 2.7922,2.30604 6.4555,3.58705 10.25881,3.58738 1.43966,-0.002 2.87162,-0.18763 4.25245,-0.55138 l 9.63662,9.28108 -8.23567,-9.71413 c 0.59576,-0.21518 1.17554,-0.46408 1.73581,-0.74518 l 5.46375,4.07469 -4.51911,-4.58938 c 3.12251,-1.8465 5.36592,-4.66264 6.29523,-7.90236 l 0.16691,-0.16744 8.16023,-1.8712 -7.79488,0.55035 -0.13177,-0.53846 c 0.0512,-0.43883 0.0783,-0.87965 0.0811,-1.32085 -3.3e-4,-2.39285 -0.71319,-4.74259 -2.06551,-6.80837 l 8.35608,-7.95404 -9.40717,6.35362 -0.32298,-0.16123 c -2.41872,-2.62652 -5.85876,-4.34073 -9.63197,-4.79971 l -0.58601,-0.29197 z m 0.8606,10.08027 c 1.43301,0.0743 1.62091,0.76488 2.16764,1.53969 0.64798,0.91829 0.26997,2.26887 0.108,3.02514 -0.16196,0.75627 -0.10788,0.91804 0.67542,0.9989 0.78329,0.0809 2.29594,0.0807 3.05201,0.97204 0.75606,0.89138 0.75596,2.67406 -0.0811,3.56515 -0.8371,0.8911 -2.5115,0.89098 -3.40289,0.97204 -0.89138,0.0811 -0.99966,0.24325 -0.86455,0.86454 0.13512,0.6213 0.51357,1.70135 -0.40462,2.32234 -0.9182,0.621 -3.13279,0.78324 -4.10518,-0.0269 -0.97238,-0.8101 -0.70243,-2.59273 -1.18856,-2.75487 -0.48612,-0.16214 -0.29408,2.61532 -2.6767,2.27239 -1.28993,-0.18566 -3.83002,-1.15507 -3.61985,-3.38819 0.20545,-2.18304 2.90105,-1.66193 3.1173,-2.47195 0.21609,-0.80947 -1.962,-1.00549 -2.10558,-3.29535 -0.0553,-0.88186 0.96378,-2.24517 1.8282,-2.43416 0.86441,-0.18899 1.8903,0.3512 2.53834,0.51315 0.64805,0.16195 0.9181,-0.0541 1.37718,-0.62115 0.45908,-0.56711 0.96893,-1.8324 2.13042,-2.04843 0.18149,-0.0337 1.45452,-0.004 1.45452,-0.004 z"
       sodipodi:nodetypes="cccccccccccccccccccccccccccccccccccccccssssssssssssssssssss" /><path
       id="path640-7"
       style="display:inline;fill:#feed5b;fill-opacity:1;stroke:none;stroke-width:0.449597;stroke-opacity:1;stop-color:#000000"
       d="m 168.39283,142.39492 c -6.43996,-1.6e-4 -11.66071,4.58872 -11.66079,10.24951 9e-5,5.66078 5.22083,10.24966 11.66079,10.2495 6.43976,-9e-5 11.66018,-4.5889 11.66027,-10.2495 -8e-5,-5.66061 -5.22051,-10.24942 -11.66027,-10.24951 z m 2.37556,2.44496 c 1.08353,-0.003 1.22601,0.92748 1.77274,1.70229 0.64798,0.91829 0.29312,2.19941 0.13115,2.95568 -0.16196,0.75627 -0.24681,0.7328 0.53649,0.81366 0.78329,0.0809 2.22648,0.26594 2.98255,1.15728 0.75606,0.89138 0.75596,2.67406 -0.0811,3.56515 -0.8371,0.8911 -2.60649,1.05335 -3.49551,1.15728 -1.02241,0.11951 -0.69865,0.0812 -0.56354,0.70245 0.13511,0.62131 0.51346,1.81693 -0.40474,2.43792 -0.9182,0.621 -3.38749,0.94536 -4.35988,0.13525 -0.97238,-0.8101 -0.99658,-3.54707 -1.14214,-3.05572 -0.55558,1.87546 -1.36057,2.59233 -2.65426,2.43495 -3.77376,-0.45907 -4.01266,-3.18328 -3.85061,-4.1287 0.16205,-0.94542 2.46171,-1.45445 3.04824,-1.87089 0.68361,-0.48537 -1.90623,-1.27307 -2.01435,-3.08668 -0.0725,-1.2166 1.14993,-2.47695 2.01435,-2.66594 0.86441,-0.18899 1.8903,0.3512 2.53834,0.51315 0.64805,0.16195 0.9181,-0.0541 1.37718,-0.62115 0.45908,-0.56711 1.015,-1.92562 2.17649,-2.14165 0.18149,-0.0337 1.9886,-0.004 1.9886,-0.004 z"
       sodipodi:nodetypes="cccccssssssssssssssssssss" /><path
       id="path746-7"
       style="display:inline;fill:#fff8ba;fill-opacity:1;stroke:none;stroke-width:2.61355;stroke-opacity:1;stop-color:#000000"
       d="m 168.39283,144.74723 c -4.89377,-3e-5 -8.86098,3.49819 -8.86096,7.81348 -2e-5,4.31529 4.12923,7.48942 9.023,7.48939 4.89377,3e-5 9.3471,-3.17411 9.34708,-7.48939 2e-5,-4.31528 -4.61535,-7.81351 -9.50912,-7.81348 z m 1.10206,0.11581 c 1.14764,-0.0776 2.31403,0.34861 2.95338,1.44759 0.56516,0.97145 0.17759,2.43095 0.0156,3.18722 -0.16195,0.75627 -0.10788,0.91803 0.67542,0.9989 0.7833,0.0809 2.31862,-0.33596 3.26016,0.90262 0.70735,0.93051 0.61716,2.92852 -0.21987,3.81961 -0.8371,0.89109 -2.58088,0.70597 -3.47227,0.787 -0.89138,0.0811 -0.99966,0.24325 -0.86455,0.86454 0.13512,0.6213 0.93005,1.21501 -0.40462,2.32234 -0.85309,0.70778 -2.90105,1.01472 -3.87344,0.20456 -0.97238,-0.81011 -1.27575,-3.47798 -1.4203,-2.98633 -0.23144,0.7872 -1.17276,2.50048 -2.46899,2.36557 -1.29623,-0.1349 -3.8043,-3.04444 -3.64225,-3.98986 0.16205,-0.94542 2.43855,-1.13028 2.65461,-1.94035 0.21606,-0.81007 -2.43839,-2.06037 -1.89838,-3.41084 0.45251,-1.13164 0.91647,-2.20632 1.78249,-2.38785 1.67462,-0.35103 2.00618,0.39727 2.65423,0.55922 0.64804,0.16195 0.9181,-0.054 1.37718,-0.62115 0.45909,-0.5671 0.75291,-1.01619 1.55148,-1.88683 0.15833,-0.17263 1.3401,-0.23596 1.3401,-0.23596 z"
       sodipodi:nodetypes="cscscsssssscsssssssssssss" /><path
       id="path16420"
       style="fill:#f6d82b;fill-opacity:1;stroke:#ff6600;stroke-width:0.0530072px;stroke-linecap:butt;stroke-linejoin:miter;stroke-opacity:1"
       d="m 54.601574,149.32102 -0.119012,1.25284 a 3.2807393,3.4822948 10.798314 0 0 -2.04796,1.08159 l -0.0104,0.005 -0.726735,-0.42969 -1.906726,-1.12736 2.365176,1.90096 a 3.2807393,3.4822948 10.798314 0 0 -0.628407,1.63901 l -0.06954,0.1655 -1.329148,0.72254 1.32669,-0.40918 0.05216,0.21904 a 3.2807393,3.4822948 10.798314 0 0 0.0029,0.0622 3.2807393,3.4822948 10.798314 0 0 0.122577,0.67239 l -1.92389,1.92236 2.042661,-1.56662 a 3.2807393,3.4822948 10.798314 0 0 0.782313,1.17525 l -0.792065,1.66471 1.030092,-1.45309 a 3.2807393,3.4822948 10.798314 0 0 2.299745,0.66179 3.2807393,3.4822948 10.798314 0 0 0.910106,-0.24756 l 2.285482,2.13509 -1.990978,-2.28101 a 3.2807393,3.4822948 10.798314 0 0 0.36048,-0.23421 l 1.270664,0.90652 -1.0768,-1.06193 a 3.2807393,3.4822948 10.798314 0 0 1.197195,-2.18069 l 0.03263,-0.047 1.729219,-0.68324 -1.678002,0.33592 -0.03997,-0.13456 a 3.2807393,3.4822948 10.798314 0 0 -0.01029,-0.34021 3.2807393,3.4822948 10.798314 0 0 -0.591946,-1.69142 l 1.642824,-2.24548 -1.904567,1.86202 -0.07343,-0.0332 a 3.2807393,3.4822948 10.798314 0 0 -2.189548,-0.98786 l -0.133212,-0.0601 z" /><ellipse
       style="fill:#feed5b;fill-opacity:1;stroke:none;stroke-width:0.110319;stroke-opacity:1;stop-color:#000000"
       id="ellipse16422"
       cx="42.181416"
       cy="159.36188"
       rx="2.6084487"
       ry="2.7586119"
       transform="matrix(0.9931098,-0.1171876,0.08066148,0.99674155,0,0)" /><ellipse
       style="fill:#fff8ba;fill-opacity:1;stroke:none;stroke-width:0.529643;stroke-opacity:1;stop-color:#000000"
       id="ellipse16424"
       cx="41.48233"
       cy="159.13321"
       rx="1.6796093"
       ry="1.6928539"
       transform="matrix(0.99378797,-0.11129007,0.08496342,0.99638407,0,0)" /><path
       id="path16426"
       style="fill:#f6d82b;fill-opacity:1;stroke:#ff6600;stroke-width:0.223943px;stroke-linecap:butt;stroke-linejoin:miter;stroke-opacity:1"
       d="m 68.414945,189.7109 -1.017508,4.79402 c -3.587245,0.0202 -7.049453,1.17932 -9.767363,3.27009 l -0.04961,0.0165 -3.158464,-1.98695 -8.286833,-5.21312 10.089307,8.41085 c -1.725309,1.72016 -2.927404,3.80693 -3.49126,6.06062 l -0.380338,0.60926 -6.3469,2.20193 6.217192,-0.99063 0.155546,0.87074 c -0.0043,0.0806 -0.0077,0.16121 -0.01033,0.24185 0.0034,0.89224 0.105861,1.78199 0.305924,2.65617 l -9.518282,6.57841 9.926526,-5.14904 c 0.645785,1.81075 1.712588,3.47928 3.130558,4.89634 l -4.248836,6.08697 5.256527,-5.16196 c 2.792199,2.30604 6.455501,3.58705 10.258805,3.58738 1.439661,-0.002 2.87162,-0.18764 4.252454,-0.55139 l 9.636621,9.28109 -8.235673,-9.71414 c 0.595759,-0.21518 1.17554,-0.46407 1.735811,-0.74517 l 5.463749,4.07468 -4.519104,-4.58938 c 3.122505,-1.8465 5.365915,-4.66264 6.295223,-7.90236 l 0.166915,-0.16743 8.160226,-1.87121 -7.794873,0.55036 -0.131775,-0.53847 c 0.05138,-0.43883 0.07863,-0.87964 0.08165,-1.32085 -3.31e-4,-2.39285 -0.71319,-4.74259 -2.065507,-6.80837 l 8.356079,-7.95404 -9.407177,6.35362 -0.322978,-0.16123 c -2.41872,-2.62652 -5.858758,-4.34073 -9.63197,-4.79971 l -0.586011,-0.29197 z m 3.850928,8.49509 c 0.173584,-0.007 0.341457,6.1e-4 0.502812,0.0243 1.29084,0.18946 2.160043,1.46399 2.441711,2.55281 0.281669,1.08883 -0.02358,1.99174 0.5271,2.36833 0.550676,0.37659 1.957223,0.22695 2.921269,1.05059 0.964047,0.82363 1.485545,2.62034 1.087789,4.12688 -0.397758,1.50653 -1.714551,2.72308 -2.207101,4.02714 -0.492549,1.30405 -0.161049,2.69488 -0.574642,3.70882 -0.413592,1.01395 -1.572414,1.65126 -2.914034,1.63452 -1.341619,-0.0167 -2.866207,-0.68749 -3.764628,-0.5426 -0.898421,0.1449 -1.170193,1.1055 -1.972489,1.70171 -0.802297,0.59622 -3.732543,0.82796 -4.804637,0.19068 -1.072094,-0.63728 -0.286152,-2.14363 -1.416172,-2.75229 -1.130021,-0.60865 -2.578608,-0.31921 -3.746025,-0.87798 -1.167417,-0.55878 -2.053344,-1.96612 -2.632914,-3.32796 -0.579571,-1.36185 -0.852682,-2.67808 -0.148311,-3.43907 0.70437,-0.761 2.386104,-0.96664 2.617928,-1.66191 0.231822,-0.69526 -0.986105,-1.87994 -1.768885,-2.61741 -0.782778,-0.73746 -1.130495,-1.02767 -0.646472,-1.89704 0.484025,-0.86937 1.800097,-2.3176 3.19102,-3.18689 1.390923,-0.86928 2.856474,-1.15901 4.384745,-0.97152 1.528272,0.1875 3.118803,-1.14513 4.770252,-1.26112 1.445017,-0.10149 2.936596,1.19625 4.151684,1.15002 z"
       sodipodi:nodetypes="cccccccccccccccccccccccccccccccccccccccsssssssssssssssssssssss" /><path
       id="path16935"
       style="fill:#f6d82b;fill-opacity:1;stroke:#ff6600;stroke-width:0.223943px;stroke-linecap:butt;stroke-linejoin:miter;stroke-opacity:1"
       d="m 174.03698,196.09163 c -3.27976,0.18426 -6.4121,1.31835 -8.91367,3.24269 l -0.0496,0.0165 -1.35599,1.21078 c -1.03145,1.02841 -1.87393,2.18865 -2.50682,3.43648 0.61862,-0.27827 1.23781,-0.55553 1.85725,-0.83199 0.79689,-0.88817 2.09552,-1.9546 3.38429,-2.31821 1.36889,-0.38621 2.35661,-4.26765 3.54914,-2.68924 0.68481,0.90641 2.63521,-0.0919 4.27622,-0.69091 -0.003,-0.011 -0.007,-0.0221 -0.01,-0.0331 -0.14173,-0.48001 -0.21463,-0.9297 -0.23099,-1.34307 z m 6.53397,0.93172 c -0.006,0.007 -0.0134,0.0141 -0.0196,0.0207 -0.004,0.14333 -0.0122,0.29108 -0.0279,0.44442 -0.0471,0.45988 -0.0945,0.91936 -0.1416,1.37924 -0.008,0.0811 -0.016,0.16225 -0.0238,0.2434 0.19501,-0.11723 0.38813,-0.23614 0.55397,-0.39016 0.12179,-0.11311 0.15763,-0.29276 0.22893,-0.44286 0.1721,-0.36249 0.19304,-0.66349 0.19327,-0.96119 -0.25119,-0.10411 -0.5057,-0.20177 -0.76326,-0.29352 z m 4.61264,2.58486 v 5.1e-4 c -0.0408,0.103 -0.088,0.20331 -0.14211,0.29973 -0.2415,0.42998 -0.54912,0.81514 -0.87437,1.18855 0.0999,0.23655 0.17691,0.47152 0.231,0.68058 0.28167,1.08883 1.42127,0.58253 1.97197,0.95912 0.55068,0.37659 -0.43853,0.86543 0.57154,1.63194 3.41847,2.59419 2.07146,4.0161 1.43247,5.34903 0.47711,0.47912 1.18283,1.18119 1.69189,1.64382 0.0187,-0.002 0.0365,-0.003 0.0548,-0.005 l -0.11782,-0.48059 c 0.0514,-0.43883 0.0781,-0.87964 0.0811,-1.32085 -3.3e-4,-2.39281 -0.71319,-4.74261 -2.0655,-6.80837 l -1.0511,-1.60042 -0.32298,-0.16123 c -0.45276,-0.49166 -0.94107,-0.95118 -1.46089,-1.37666 z m 4.92735,11.79308 v 5.1e-4 c 0.008,0.007 0.0142,0.0129 0.0217,0.0196 l 0.002,-0.007 -0.002,-0.009 c -0.007,-10e-4 -0.0148,-0.003 -0.0217,-0.004 z m -28.58069,1.94975 c -0.23104,0.16974 -0.5294,0.376 -0.84594,0.57929 0.65368,1.69914 1.68047,3.26578 3.02255,4.60695 l 1.00769,0.92501 c 1.24851,1.03113 2.67136,1.85676 4.20285,2.45515 -0.0672,-0.71519 -0.21478,-1.43866 -0.06,-2.13062 -1.94212,0.81311 -1.95457,-2.29989 -3.01738,-2.80861 -1.16742,-0.55878 -1.91382,0.0302 -2.49339,-1.33171 -0.22363,-0.52544 -1.11381,-1.3992 -1.81643,-2.29546 z m 25.35763,0.94258 c -1.14383,0.62777 -2.51139,1.39139 -2.42983,3.33054 0.0436,1.03667 1.5e-4,1.49706 -0.21497,1.69602 0.078,0.29383 0.14447,0.54671 0.19688,0.74466 1.16176,-0.83537 2.17358,-1.81551 3.00654,-2.90577 -0.22611,-0.77862 -0.27957,-1.69315 -0.0191,-2.42052 -0.18623,-0.13924 -0.36515,-0.28887 -0.5395,-0.44493 z m -9.88622,6.72672 c -0.21535,0.004 -0.41568,0.0561 -0.59118,0.18655 -0.63706,0.47343 -0.90294,1.96273 -3.18534,0.85163 0.0224,0.30239 0.0257,0.60281 -0.017,0.89865 0.58312,0.0613 1.17258,0.0925 1.76527,0.0925 1.43966,-0.002 2.87162,-0.18764 4.25245,-0.55139 l 1.3131,-0.40566 c -0.0776,-0.2723 -0.15031,-0.54696 -0.28112,-1.04696 -0.29865,0.23415 -0.57605,0.41309 -0.82476,0.4532 -0.70189,0.1132 -1.66226,-0.49238 -2.43137,-0.47852 z" /><path
       id="path16426-5"
       style="fill:#f6d82b;fill-opacity:1;stroke:#ff6600;stroke-width:0.217108px;stroke-linecap:butt;stroke-linejoin:miter;stroke-opacity:1"
       d="m 123.37079,190.91332 -0.99496,4.60797 c -3.50774,0.0194 -6.89323,1.13355 -9.5509,3.14318 l -0.53734,0.87137 -3.21069,-2.88751 -2.23708,-2.32217 4.61067,5.51801 c -1.68708,1.6534 -2.86254,3.65918 -3.41389,5.8254 l -0.005,1.19668 -3.88425,-0.0833 3.39078,0.63656 0.1521,0.83695 c -0.004,0.0775 -0.007,0.15495 -0.0101,0.23246 0.003,0.85762 0.10351,1.71284 0.29914,2.55309 l -6.74092,4.36773 6.8957,-3.60489 c 0.63147,1.74047 1.91904,3.9553 3.30559,5.31736 l -2.44372,3.52874 3.42909,-3.37288 c 2.73031,2.21654 6.31243,4.1811 10.03145,4.18141 1.40775,-0.002 3.41903,-0.18036 4.76926,-0.52999 l 4.90129,9.40973 -4.14243,-9.82597 c 0.58255,-0.20683 1.14948,-0.44606 1.69734,-0.71626 l 2.53182,1.47234 -1.60811,-1.96706 c 3.0533,-1.77483 5.24699,-4.48168 6.1557,-7.59567 l -0.0812,-1.0164 6.26843,-0.6987 -5.66676,0.28458 -0.12886,-0.51757 c 0.0503,-0.4218 0.0769,-0.8455 0.0798,-1.26959 -3.3e-4,-2.29998 -1.30844,-5.65842 -2.63078,-7.64402 l 6.82657,-4.10125 -7.24332,3.66283 -0.31583,-0.15498 c -2.36512,-2.52458 -5.72892,-4.17226 -9.41851,-4.61343 l -1.30629,-0.28064 z m 3.76558,8.1654 c -0.16688,0.0318 3.04744,2.37941 1.34714,0.63435 -1.77324,-1.81992 4.31197,0.67392 4.58739,1.72047 0.27543,1.04658 -0.84489,1.37631 -0.21784,1.54316 2.73827,0.72861 0.73213,1.7842 1.87884,2.23192 2.65364,1.03608 1.69704,2.39643 1.30811,3.84451 -0.38895,1.44806 0.76765,6.52813 -2.40261,5.21516 -1.2406,-0.5138 -0.64633,3.44577 -1.90622,1.97614 -0.68677,-0.8011 -2.39305,3.42034 -3.70494,3.40425 -1.31188,-0.0161 -2.1719,-0.87455 -2.4591,-0.0327 -0.75629,2.21685 -2.36635,-0.52615 -3.15086,0.0469 -0.78452,0.57308 -2.6669,-0.24713 -3.84269,-0.54997 -1.90381,-0.49035 -2.11296,-0.71614 -3.21795,-1.30117 -1.10499,-0.58503 -0.6883,-1.77334 -1.82985,-2.31043 -1.14155,-0.53709 -3.22994,-1.7676 -3.79666,-3.07659 -0.56672,-1.30899 -0.46715,-2.57415 0.22161,-3.3056 0.68876,-0.73146 -0.84425,-1.54018 -0.61757,-2.20846 0.2267,-0.66828 3.06869,-1.19593 2.30327,-1.90478 -0.76544,-0.70884 -1.22767,-1.23221 -0.75436,-2.06784 0.47329,-0.83563 1.8824,-1.98323 3.24251,-2.81878 1.3601,-0.83555 2.30433,-2.94719 3.79873,-2.76698 1.4944,0.18022 2.63804,0.48416 4.78675,-0.23448 2.53706,-0.84852 8.16071,1.24951 6.99272,1.47201 z"
       sodipodi:nodetypes="cccccccccccccccccccccccccccccccccccccccssssssssssssssssssssssss" /></g></svg>
