<?xml version="1.0" encoding="UTF-8" standalone="no"?>
<svg
   width="28.839582mm"
   height="23.812502mm"
   viewBox="0 0 28.839582 23.812502"
   version="1.1"
   id="svg5"
   xml:space="preserve"
   inkscape:version="1.0.1 (3bc2e813f5, 2020-09-07)"
   sodipodi:docname="drawing_manaswi.svg"
   xmlns:inkscape="http://www.inkscape.org/namespaces/inkscape"
   xmlns:sodipodi="http://sodipodi.sourceforge.net/DTD/sodipodi-0.dtd"
   xmlns:xlink="http://www.w3.org/1999/xlink"
   xmlns="http://www.w3.org/2000/svg"
   xmlns:svg="http://www.w3.org/2000/svg"
   xmlns:rdf="http://www.w3.org/1999/02/22-rdf-syntax-ns#"
   xmlns:cc="http://creativecommons.org/ns#"
   xmlns:dc="http://purl.org/dc/elements/1.1/"><metadata
     id="metadata167"><rdf:RDF><cc:Work
         rdf:about=""><dc:format>image/svg+xml</dc:format><dc:type
           rdf:resource="http://purl.org/dc/dcmitype/StillImage" /></cc:Work></rdf:RDF></metadata><sodipodi:namedview
     id="namedview7"
     pagecolor="#ffffff"
     bordercolor="#000000"
     borderopacity="0.25"
     inkscape:showpageshadow="2"
     inkscape:pageopacity="0.0"
     inkscape:pagecheckerboard="0"
     inkscape:deskcolor="#d1d1d1"
     inkscape:document-units="mm"
     showgrid="false"
     inkscape:zoom="0.5"
     inkscape:cx="619.78315"
     inkscape:cy="1529.1847"
     inkscape:window-width="1920"
     inkscape:window-height="1009"
     inkscape:window-x="-8"
     inkscape:window-y="-8"
     inkscape:window-maximized="1"
     inkscape:current-layer="layer1"
     inkscape:document-rotation="0"
     showguides="false" /><defs
     id="defs2"><linearGradient
       id="linearGradient98"
       inkscape:collect="always"><stop
         style="stop-color:#ff6600;stop-opacity:1;"
         offset="0"
         id="stop97" /><stop
         style="stop-color:#341600;stop-opacity:0;"
         offset="1"
         id="stop98" /></linearGradient><linearGradient
       id="linearGradient28"
       inkscape:collect="always"><stop
         style="stop-color:#ff6600;stop-opacity:1;"
         offset="0"
         id="stop28" /><stop
         style="stop-color:#ff6600;stop-opacity:0;"
         offset="1"
         id="stop29" /></linearGradient><radialGradient
       inkscape:collect="always"
       xlink:href="#linearGradient28"
       id="radialGradient33"
       gradientUnits="userSpaceOnUse"
       gradientTransform="matrix(1,0,0,0.94999998,10.047954,33.402359)"
       cx="191.5788"
       cy="389.28473"
       fx="191.5788"
       fy="389.28473"
       r="0.93544334" /><radialGradient
       inkscape:collect="always"
       xlink:href="#linearGradient28"
       id="radialGradient32"
       gradientUnits="userSpaceOnUse"
       gradientTransform="matrix(1,0,0,0.94999998,-2.861165,39.202108)"
       cx="191.5788"
       cy="389.28473"
       fx="191.5788"
       fy="389.28473"
       r="0.93544334" /><radialGradient
       inkscape:collect="always"
       xlink:href="#linearGradient28"
       id="radialGradient57"
       gradientUnits="userSpaceOnUse"
       gradientTransform="matrix(1,0,0,0.94999998,-2.299899,46.685654)"
       cx="191.5788"
       cy="389.28473"
       fx="191.5788"
       fy="389.28473"
       r="0.93544334" /><radialGradient
       inkscape:collect="always"
       xlink:href="#linearGradient98"
       id="radialGradient93"
       gradientUnits="userSpaceOnUse"
       gradientTransform="matrix(0.37803018,0,0,0.39967839,-634.05926,-520.01707)"
       cx="199.06235"
       cy="394.75711"
       fx="199.06235"
       fy="394.75711"
       r="17.96051" /><radialGradient
       inkscape:collect="always"
       xlink:href="#linearGradient28"
       id="radialGradient94"
       gradientUnits="userSpaceOnUse"
       gradientTransform="matrix(1,0,0,0.94999998,-3.796609,36.395777)"
       cx="191.5788"
       cy="389.28473"
       fx="191.5788"
       fy="389.28473"
       r="0.93544334" /></defs><g
     inkscape:label="Layer 1"
     inkscape:groupmode="layer"
     id="layer1"
     transform="translate(-155.37856,-395.77541)"><g
       id="g103"
       transform="translate(-13.096875,20.372917)"><rect
         style="fill:none;fill-opacity:1;stroke-width:0.434539"
         id="rect95"
         width="28.839582"
         height="23.8125"
         x="168.47543"
         y="375.4025" /><g
         id="g100"
         transform="translate(-14.169877,-22.55571)"><g
           id="g98"><ellipse
             style="fill:url(#radialGradient33);fill-opacity:1;stroke-width:0.264583"
             id="ellipse29"
             cx="201.62677"
             cy="403.22281"
             rx="0.93544334"
             ry="0.88867116" /><ellipse
             style="fill:url(#radialGradient32);fill-opacity:1;stroke-width:0.264583"
             id="ellipse30"
             cx="188.71764"
             cy="409.02255"
             rx="0.93544334"
             ry="0.88867116" /><ellipse
             style="fill:url(#radialGradient57);fill-opacity:1;stroke-width:0.264583"
             id="ellipse56"
             cx="189.2789"
             cy="416.5061"
             rx="0.93544334"
             ry="0.88867116" /><ellipse
             style="fill:url(#radialGradient93);stroke-width:0.115588"
             id="ellipse93"
             cx="-558.80774"
             cy="-362.24115"
             rx="6.7896156"
             ry="7.1784272"
             transform="matrix(-0.91719034,-0.39844934,0.8569042,-0.51547569,0,0)" /><ellipse
             style="fill:url(#radialGradient94);fill-opacity:1;stroke-width:0.264583"
             id="ellipse94"
             cx="187.78218"
             cy="406.21628"
             rx="0.93544334"
             ry="0.88867116" /></g><g
           id="g99"><path
             style="font-variation-settings:normal;vector-effect:none;fill:#4a4e6b;fill-opacity:1;stroke-width:0.128735"
             d="m 187.04527,404.11966 7.56961,-0.19931 c 0,0 -2.13779,-1.25465 -4.3694,-1.29941 7.03155,0.11757 8.78225,1.27753 9.14477,1.57764 0.36253,0.30011 1.41261,1.80376 1.96859,2.13425 0.55597,0.3305 2.23279,0.58591 2.68105,0.61888 0.44826,0.033 2.6879,1.22701 2.95289,1.8008 0.14123,0.3058 0.39489,0.26646 -0.0753,0.56046 -0.47023,0.29399 -3.04265,1.95462 -3.5397,1.91746 -0.49705,-0.0372 -1.68789,0.70707 -2.30056,1.40304 -0.61268,0.69598 -0.76034,2.013 -2.30913,2.63246 -1.54878,0.61946 -4.47719,1.20888 -4.7361,1.10875 -0.25891,-0.10012 2.11319,-1.33493 2.27853,-1.50139 0.16533,-0.16645 -3.77309,0.25773 -5.42289,0.1227 -1.64981,-0.13503 1.36922,-0.27997 1.98453,-0.5986 0.61532,-0.31863 2.527,-1.59941 2.66463,-1.59941 0.13763,0 -0.79751,0.006 -2.82742,-0.24266 -2.02993,-0.24838 -4.00228,-0.11817 -4.56532,-0.11817 -0.58951,0 -2.05638,-0.0826 -2.75196,-0.30665 -1.13396,-0.36519 -2.10621,-0.34658 -2.14163,-0.74848 -0.0177,-0.20095 0.42628,-0.31653 1.43543,-0.54019 0.0785,-0.0174 0.32253,-0.0419 0.81885,-0.16997 0.42685,-0.11014 0.906,-0.47906 0.84258,-0.52408 -0.30903,-0.21935 -1.32323,0.0639 -1.26205,-0.11454 0.12236,-0.35692 0.38262,-0.57023 0.74506,-0.73234 1.32713,-0.5936 5.29412,-1.88726 8.61959,-1.74118 3.32548,0.14609 3.74096,0.17365 3.81823,-0.1305 0.0773,-0.30415 0.25052,-0.95685 -0.20907,-1.16747 -0.45959,-0.21064 -0.0867,0.85673 -0.48468,0.76053 -0.39796,-0.0962 -1.48072,-0.70174 -1.48072,-0.87032 0,-0.16858 -0.82929,-0.23078 -1.15403,0.0567 -0.32473,0.28748 -7.02667,-1.90397 -7.89434,-2.08898 z"
             id="path16"
             sodipodi:nodetypes="cccsssssssssssssssssssssssssssssc" /><path
             style="font-variation-settings:normal;vector-effect:none;fill:#bec0c8;fill-opacity:1;stroke-width:0.128735"
             d="m 192.29869,414.56352 c 5.45039,-0.21309 6.3605,-0.18133 6.93634,-0.48573 0.57581,-0.30439 1.2189,-1.29375 1.28786,-1.52248 0.069,-0.22872 1.34514,-1.3138 1.81851,-1.4413 0.47334,-0.12749 0.63716,-0.1068 0.63716,-0.1068 0,0 -0.0273,-0.41841 -0.26332,-0.42873 -0.23604,-0.0103 -1.95178,0.26049 -2.15928,0.41424 -0.20749,0.15377 -1.0501,1.22643 -1.38996,1.36649 -0.33986,0.14007 -1.71538,0.50154 -1.881,0.49414 -0.16562,-0.007 -1.12106,0.0258 -1.42521,0.10973 -0.30415,0.0839 -1.91819,1.0843 -2.17172,1.20826 -0.25353,0.12397 -0.94956,0.40282 -1.38938,0.39218 z"
             id="path17" /><path
             style="font-variation-settings:normal;vector-effect:none;fill:#f4b236;fill-opacity:1;stroke-width:0.128735"
             d="m 201.04152,410.83973 c -0.84748,0.52766 -0.90008,0.97306 -1.0772,1.13544 -0.17711,0.16238 -0.73245,0.90682 -1.52908,1.02843 -0.79661,0.12161 -1.4776,0.009 -1.85887,0.0257 -0.38129,0.0171 0.35206,-0.41958 0.99119,-0.49843 0.63914,-0.0788 0.883,-0.0887 1.07735,-0.2115 0.19437,-0.1228 0.3765,-0.23264 0.51891,-0.49837 0.14242,-0.26573 0.38791,-0.46049 0.4983,-0.53172 0.25011,-0.1614 0.9725,-0.53924 1.3794,-0.44956 z"
             id="path18"
             sodipodi:nodetypes="ssssssssss" /><path
             style="font-variation-settings:normal;vector-effect:none;fill:#bec0c8;fill-opacity:1;stroke-width:0.128735"
             d="m 204.24949,407.4186 -0.0955,-0.23387 -1.01472,-0.0975 c 0,0 -1.37336,-0.41061 -1.78041,-0.75441 -0.40705,-0.3438 -1.02751,-1.4065 -1.33585,-1.67894 -0.30836,-0.27245 -0.80749,-0.74376 -1.9759,-1.10403 -1.1684,-0.36028 -3.18004,-0.68602 -3.63302,-0.69424 -0.45298,-0.008 -1.37001,-0.11939 -1.37001,-0.11939 0,0 2.58262,0.38475 3.02099,0.75975 0.43834,0.375 0.49153,0.42954 0.49153,0.42954 0,0 1.46211,-0.096 2.0421,0.12997 0.58001,0.226 1.57895,1.27282 1.92135,1.71596 0.3424,0.44313 0.39904,0.62472 0.6436,0.76082 0.24458,0.13611 0.51115,-0.009 0.81503,0.36926 0.30386,0.37795 0.40494,0.56719 0.40494,0.56719 z"
             id="path19"
             sodipodi:nodetypes="cccsssscscsssscc" /><path
             style="font-variation-settings:normal;vector-effect:none;fill:#bec0c8;fill-opacity:1;stroke-width:0.128735"
             d="m 201.64572,407.6814 -0.0886,-0.60332 c 0,0 -0.20099,0.0768 -0.51559,-0.0802 -0.31462,-0.15698 -0.98873,-1.14939 -1.13288,-1.37844 -0.14416,-0.22905 -0.84131,-1.01635 -1.41572,-1.05665 -0.57442,-0.0403 -5.85412,-0.14781 -5.85412,-0.14781 0,0 1.24513,0.054 1.6106,0.31744 0.36548,0.2634 0.818,0.8654 0.54097,1.17222 -0.0705,0.0781 1.6488,-0.51335 2.3833,-0.37736 0.73449,0.13599 1.89502,0.54614 2.26156,1.19906 0.36656,0.65291 0.73843,0.88142 1.03295,0.88142 0.29452,0 1.17754,0.0736 1.17754,0.0736 z"
             id="path20"
             sodipodi:nodetypes="ccssscsssssc" /><path
             style="font-variation-settings:normal;vector-effect:none;fill:#f4b236;fill-opacity:1;stroke-width:0.128735"
             d="m 197.32493,405.55792 c 0.34746,0.37434 0.5883,0.48505 0.80593,0.57692 0.21762,0.0919 0.62374,0.3907 0.70455,0.62425 0.0808,0.23355 0.40945,0.63094 0.56993,0.70963 0.16048,0.0787 1.06284,0.13905 1.06284,0.13905 0,0 -0.32785,-0.1352 -0.62228,-0.56879 -0.29443,-0.4336 -0.43171,-0.82246 -0.78782,-0.99079 -0.35612,-0.16832 -0.6891,-0.33931 -0.98058,-0.40239 -0.2915,-0.0631 -0.75257,-0.0879 -0.75257,-0.0879 z"
             id="path21" /><path
             style="font-variation-settings:normal;vector-effect:none;fill:#bec0c8;fill-opacity:1;stroke-width:0.128735"
             d="m 196.58934,410.82613 c -0.4834,0.91226 -1.90476,1.36142 -2.19765,1.36142 -0.29289,0 -1.79806,0.23907 -2.21758,0.22269 -0.41954,-0.0164 -2.6649,0.0759 -2.8461,-0.0108 -0.18118,-0.0867 -0.65653,-0.33644 -0.88042,-0.56441 -0.22388,-0.22797 -0.30358,-0.47118 -0.30358,-0.47118 0,0 0.39054,0.48803 0.77058,0.57958 0.38004,0.0915 1.69594,0.19022 2.25118,0.16536 0.55527,-0.0249 1.32285,-0.10676 1.67831,-0.16536 0.35547,-0.0586 1.03967,-0.28504 1.29517,-0.3822 0.25552,-0.0971 0.77366,-0.30582 0.99362,-0.57034 0.21997,-0.26451 0.20914,-0.66247 0.16884,-0.78988 -0.0403,-0.12741 -0.41649,-0.65585 -0.68683,-0.76009 -0.27033,-0.10425 -1.51094,-0.24567 -2.10857,-0.0916 -0.59763,0.15407 -2.28697,0.3708 -2.74253,0.59475 -0.45555,0.22396 -0.90367,0.44359 -0.96387,0.49606 -0.0602,0.0525 -0.0653,0.008 -0.006,-0.0297 0.0588,-0.0377 0.92045,-0.50065 0.99196,-0.52572 0.0715,-0.0251 0.4304,-0.1465 0.62954,-0.18332 0.19916,-0.0368 1.38665,-0.26219 1.46399,-0.27219 0.0774,-0.01 0.34553,-0.0652 0.43956,-0.0822 0.094,-0.0171 0.32195,-0.0748 0.4216,-0.0811 0.0997,-0.006 0.76137,-0.0334 1.02339,-0.01 0.262,0.0234 1.07061,0.11557 1.25109,0.17166 0.18046,0.0561 0.67725,0.30019 0.83443,0.4488 0.15718,0.14862 0.54974,0.56287 0.65725,0.73554 0.10752,0.17267 0.0831,0.21426 0.0831,0.21426 z"
             id="path22" /><path
             style="font-variation-settings:normal;vector-effect:none;fill:#bec0c8;fill-opacity:1;stroke-width:0.128735"
             d="m 206.89844,408.86457 c 0,0 -2.32695,-0.74326 -2.86088,-0.63645 -0.53393,0.10681 -2.70791,0.79458 -3.45333,0.66197 -0.74541,-0.1326 -0.43045,-0.17473 -0.43045,-0.17473 0,0 0.73601,-0.0229 0.88774,-0.11596 0.15172,-0.093 0.11503,-0.15988 0.11503,-0.15988 0,0 -2.80356,-0.0601 -3.37704,-0.0259 -0.57347,0.0343 -0.45439,-0.0667 -0.19975,-0.0903 0.25464,-0.0236 1.93167,-0.0392 2.33878,-0.0475 0.40712,-0.008 2.38279,-0.10538 2.65076,-0.13003 0.26797,-0.0247 1.22416,-0.0759 1.47817,-0.063 0.25401,0.0128 1.28916,0.16566 1.57022,0.25006 0.28105,0.0844 0.9104,0.25117 1.09203,0.31752 0.18164,0.0663 0.22978,0.0953 0.24965,0.12963 0.0198,0.0343 -0.0609,0.0846 -0.0609,0.0846 z"
             id="path23" /><circle
             style="font-variation-settings:normal;vector-effect:none;fill:#f4b236;fill-opacity:1;stroke-width:0.0771634"
             id="circle23"
             cx="206.47125"
             cy="409.10086"
             r="0.14564642" /><circle
             style="font-variation-settings:normal;vector-effect:none;fill:#f4b236;fill-opacity:1;stroke-width:0.0771634"
             id="circle24"
             cx="205.83377"
             cy="408.9552"
             r="0.14564642" /><circle
             style="font-variation-settings:normal;vector-effect:none;fill:#f4b236;fill-opacity:1;stroke-width:0.0771634"
             id="circle25"
             cx="205.13416"
             cy="408.80957"
             r="0.14564642" /><circle
             style="font-variation-settings:normal;vector-effect:none;fill:#f4b236;fill-opacity:1;stroke-width:0.0771634"
             id="circle26"
             cx="204.57639"
             cy="408.80957"
             r="0.14564642" /><circle
             style="font-variation-settings:normal;vector-effect:none;fill:#f4b236;fill-opacity:1;stroke-width:0.0771634"
             id="circle27"
             cx="203.94989"
             cy="408.90698"
             r="0.14564642" /><circle
             style="font-variation-settings:normal;vector-effect:none;fill:#f4b236;fill-opacity:1;stroke-width:0.0771634"
             id="circle28"
             cx="203.26401"
             cy="409.19827"
             r="0.14564642" /></g></g></g></g></svg>
